<svg xmlns="http://www.w3.org/2000/svg" xmlns:xlink="http://www.w3.org/1999/xlink" width="21" height="19" viewBox="0 0 21 19"><defs><path id="a" d="M0 0h20.342v18.074H0z"></path></defs><g fill="none" fill-rule="evenodd"><mask id="b" fill="#fff"><use xlink:href="#a"></use></mask><path fill="#606670" d="M11.093 2.762L8.598 5.237a.472.472 0 0 1-.661 0 .458.458 0 0 1-.003-.655l1.59-1.574-.032-.026c-.67-.631-1.437-1.085-2.256-1.3a4.265 4.265 0 0 0-2.374.069 4.845 4.845 0 0 0-1.91 1.148A4.696 4.696 0 0 0 1.77 4.748a3.818 3.818 0 0 0-.078 2.231c.205.76.649 1.475 1.272 2.089l7.206 7.14 7.17-7.1.038-.04c.623-.614 1.065-1.329 1.27-2.089a3.81 3.81 0 0 0-.078-2.228 4.638 4.638 0 0 0-1.18-1.849 4.865 4.865 0 0 0-1.91-1.151 4.29 4.29 0 0 0-2.374-.066c-.72.189-1.405.563-2.013 1.077zm-9.237 7.403C1.046 9.362.46 8.411.183 7.38A5.321 5.321 0 0 1 .29 4.262a6.223 6.223 0 0 1 1.566-2.465A6.448 6.448 0 0 1 4.392.277a5.807 5.807 0 0 1 3.24-.089 6.6 6.6 0 0 1 2.538 1.326C10.934.885 11.794.428 12.71.19a5.818 5.818 0 0 1 3.242.088c.95.3 1.823.832 2.533 1.52a6.255 6.255 0 0 1 1.566 2.466 5.334 5.334 0 0 1 .107 3.114c-.28 1.035-.862 1.983-1.673 2.786l-7.765 7.683a.784.784 0 0 1-1.102 0l-7.763-7.683z" mask="url(#b)"></path></g></svg>