<svg xmlns="http://www.w3.org/2000/svg" viewBox="0 0 40 40"><path fill="#c2e8ff" d="M20 16.5A3.5 3.5 0 1 0 20 23.5A3.5 3.5 0 1 0 20 16.5Z"/><path fill="#7496c4" d="M20,17c1.654,0,3,1.346,3,3s-1.346,3-3,3s-3-1.346-3-3S18.346,17,20,17 M20,16c-2.209,0-4,1.791-4,4 s1.791,4,4,4s4-1.791,4-4S22.209,16,20,16L20,16z"/><path fill="#c2e8ff" d="M20 3.5A3.5 3.5 0 1 0 20 10.5A3.5 3.5 0 1 0 20 3.5Z"/><path fill="#7496c4" d="M20,4c1.654,0,3,1.346,3,3s-1.346,3-3,3s-3-1.346-3-3S18.346,4,20,4 M20,3c-2.209,0-4,1.791-4,4 s1.791,4,4,4s4-1.791,4-4S22.209,3,20,3L20,3z"/><g><path fill="#c2e8ff" d="M20 29.5A3.5 3.5 0 1 0 20 36.5A3.5 3.5 0 1 0 20 29.5Z"/><path fill="#7496c4" d="M20,30c1.654,0,3,1.346,3,3s-1.346,3-3,3s-3-1.346-3-3S18.346,30,20,30 M20,29c-2.209,0-4,1.791-4,4 s1.791,4,4,4s4-1.791,4-4S22.209,29,20,29L20,29z"/></g></svg>