<svg xmlns="http://www.w3.org/2000/svg" viewBox="0 0 80 80">
  <path d="M18 8.585938L8.585938 18L30.585938 40L8.585938 62L18 71.414063L40 49.414063L62 71.414063L71.414063 62L49.414063 40L71.414063 18L62 8.585938L40 30.585938 Z M 18 11.414063L40 33.414063L62 11.414063L68.585938 18L46.585938 40L68.585938 62L62 68.585938L40 46.585938L18 68.585938L11.414063 62L33.414063 40L11.414063 18 Z M 19 15C18.449219 15 18 15.449219 18 16C18 16.550781 18.449219 17 19 17C19.550781 17 20 16.550781 20 16C20 15.449219 19.550781 15 19 15 Z M 61 15C60.449219 15 60 15.449219 60 16C60 16.550781 60.449219 17 61 17C61.550781 17 62 16.550781 62 16C62 15.449219 61.550781 15 61 15 Z M 22 18C21.449219 18 21 18.449219 21 19C21 19.550781 21.449219 20 22 20C22.550781 20 23 19.550781 23 19C23 18.449219 22.550781 18 22 18 Z M 58 18C57.449219 18 57 18.449219 57 19C57 19.550781 57.449219 20 58 20C58.550781 20 59 19.550781 59 19C59 18.449219 58.550781 18 58 18 Z M 25 21C24.449219 21 24 21.449219 24 22C24 22.550781 24.449219 23 25 23C25.550781 23 26 22.550781 26 22C26 21.449219 25.550781 21 25 21 Z M 55 21C54.449219 21 54 21.449219 54 22C54 22.550781 54.449219 23 55 23C55.550781 23 56 22.550781 56 22C56 21.449219 55.550781 21 55 21 Z M 28 24C27.449219 24 27 24.449219 27 25C27 25.550781 27.449219 26 28 26C28.550781 26 29 25.550781 29 25C29 24.449219 28.550781 24 28 24 Z M 52 24C51.449219 24 51 24.449219 51 25C51 25.550781 51.449219 26 52 26C52.550781 26 53 25.550781 53 25C53 24.449219 52.550781 24 52 24 Z M 31 27C30.449219 27 30 27.449219 30 28C30 28.550781 30.449219 29 31 29C31.550781 29 32 28.550781 32 28C32 27.449219 31.550781 27 31 27 Z M 49 27C48.449219 27 48 27.449219 48 28C48 28.550781 48.449219 29 49 29C49.550781 29 50 28.550781 50 28C50 27.449219 49.550781 27 49 27 Z M 34 30C33.449219 30 33 30.449219 33 31C33 31.550781 33.449219 32 34 32C34.550781 32 35 31.550781 35 31C35 30.449219 34.550781 30 34 30 Z M 46 30C45.449219 30 45 30.449219 45 31C45 31.550781 45.449219 32 46 32C46.550781 32 47 31.550781 47 31C47 30.449219 46.550781 30 46 30 Z M 37 33C36.449219 33 36 33.449219 36 34C36 34.550781 36.449219 35 37 35C37.550781 35 38 34.550781 38 34C38 33.449219 37.550781 33 37 33 Z M 43 33C42.449219 33 42 33.449219 42 34C42 34.550781 42.449219 35 43 35C43.550781 35 44 34.550781 44 34C44 33.449219 43.550781 33 43 33 Z M 40 36C39.449219 36 39 36.449219 39 37C39 37.550781 39.449219 38 40 38C40.550781 38 41 37.550781 41 37C41 36.449219 40.550781 36 40 36 Z M 33 43C32.449219 43 32 43.449219 32 44C32 44.550781 32.449219 45 33 45C33.550781 45 34 44.550781 34 44C34 43.449219 33.550781 43 33 43 Z M 47 43C46.449219 43 46 43.449219 46 44C46 44.550781 46.449219 45 47 45C47.550781 45 48 44.550781 48 44C48 43.449219 47.550781 43 47 43 Z M 30 46C29.449219 46 29 46.449219 29 47C29 47.550781 29.449219 48 30 48C30.550781 48 31 47.550781 31 47C31 46.449219 30.550781 46 30 46 Z M 50 46C49.449219 46 49 46.449219 49 47C49 47.550781 49.449219 48 50 48C50.550781 48 51 47.550781 51 47C51 46.449219 50.550781 46 50 46 Z M 27 49C26.449219 49 26 49.449219 26 50C26 50.550781 26.449219 51 27 51C27.550781 51 28 50.550781 28 50C28 49.449219 27.550781 49 27 49 Z M 53 49C52.449219 49 52 49.449219 52 50C52 50.550781 52.449219 51 53 51C53.550781 51 54 50.550781 54 50C54 49.449219 53.550781 49 53 49 Z M 24 52C23.449219 52 23 52.449219 23 53C23 53.550781 23.449219 54 24 54C24.550781 54 25 53.550781 25 53C25 52.449219 24.550781 52 24 52 Z M 56 52C55.449219 52 55 52.449219 55 53C55 53.550781 55.449219 54 56 54C56.550781 54 57 53.550781 57 53C57 52.449219 56.550781 52 56 52 Z M 21 55C20.449219 55 20 55.449219 20 56C20 56.550781 20.449219 57 21 57C21.550781 57 22 56.550781 22 56C22 55.449219 21.550781 55 21 55 Z M 59 55C58.449219 55 58 55.449219 58 56C58 56.550781 58.449219 57 59 57C59.550781 57 60 56.550781 60 56C60 55.449219 59.550781 55 59 55 Z M 18 58C17.449219 58 17 58.449219 17 59C17 59.550781 17.449219 60 18 60C18.550781 60 19 59.550781 19 59C19 58.449219 18.550781 58 18 58 Z M 62 58C61.449219 58 61 58.449219 61 59C61 59.550781 61.449219 60 62 60C62.550781 60 63 59.550781 63 59C63 58.449219 62.550781 58 62 58 Z M 15 61C14.449219 61 14 61.449219 14 62C14 62.550781 14.449219 63 15 63C15.550781 63 16 62.550781 16 62C16 61.449219 15.550781 61 15 61 Z M 65 61C64.449219 61 64 61.449219 64 62C64 62.550781 64.449219 63 65 63C65.550781 63 66 62.550781 66 62C66 61.449219 65.550781 61 65 61Z" fill="#FAFAFA" />
</svg>