<svg xmlns="http://www.w3.org/2000/svg" viewBox="0 0 50 50">
  <path d="M11.90625 6C5.339844 6 0 11.339844 0 17.90625C0 31.394531 15.214844 38.480469 20.375 42.78125L21 43.3125L21.625 42.78125C22.628906 41.945313 24.074219 40.933594 25.65625 39.84375C27.027344 41.613281 28.308594 43.132813 29.03125 44.28125L29.46875 45L30.25 44.6875C34.554688 42.96875 46.523438 41.800781 49.5625 32.46875C51.054688 27.878906 48.527344 22.929688 43.9375 21.4375C43.191406 21.195313 42.433594 21.09375 41.6875 21.0625C41.878906 20.050781 42 18.996094 42 17.90625C42 11.339844 36.660156 6 30.09375 6C26.410156 6 23.179688 7.808594 21 10.4375C18.820313 7.808594 15.589844 6 11.90625 6 Z M 11.90625 8C15.339844 8 18.375 9.878906 20.15625 12.5625L21 13.8125L21.84375 12.5625C23.625 9.878906 26.660156 8 30.09375 8C35.578125 8 40 12.421875 40 17.90625C40 19.050781 39.855469 20.140625 39.625 21.1875C38.65625 21.386719 37.730469 21.757813 36.875 22.25C35.902344 20.054688 34.113281 18.238281 31.65625 17.4375C30.507813 17.0625 29.320313 16.933594 28.1875 17.03125C24.785156 17.324219 21.746094 19.621094 20.625 23.0625C18.734375 28.867188 21.519531 34.148438 24.46875 38.25C23.171875 39.152344 22.015625 39.980469 21 40.78125C14.984375 36.027344 2 29.535156 2 17.90625C2 12.421875 6.421875 8 11.90625 8 Z M 29.03125 19C29.691406 19.007813 30.363281 19.125 31.03125 19.34375C33.273438 20.074219 34.878906 21.859375 35.46875 23.96875L35.84375 25.40625L37.03125 24.46875C38.746094 23.109375 41.101563 22.613281 43.34375 23.34375C46.90625 24.503906 48.8125 28.28125 47.65625 31.84375C45.183594 39.433594 35.507813 40.671875 30.25 42.5625C27.109375 37.9375 20.03125 31.238281 22.5 23.65625C23.367188 20.984375 25.75 19.253906 28.375 19.03125C28.59375 19.011719 28.8125 18.996094 29.03125 19Z" fill="#75ADED" />
</svg>