<svg width="16" height="17" viewBox="0 0 16 17" fill="none" xmlns="http://www.w3.org/2000/svg">
                              <path fill-rule="evenodd" clip-rule="evenodd" d="M1.41325 1.68282C1.68781 1.38413 2.04836 1.21875 2.42577 1.21875H13.7092C14.0866 1.21875 14.4472 1.38413 14.7218 1.68282C14.9957 1.98082 15.135 2.35677 15.135 2.73465V11.6618C15.135 12.0397 14.9957 12.4157 14.7218 12.7137C14.4476 13.012 14.0876 13.1773 13.7108 13.1777L13.7092 13.1777L5.24705 13.2325L3.3215 14.9607C3.09469 15.2002 2.85702 15.2789 2.63332 15.3397L2.58177 15.3537H2.52835C2.51835 15.3537 2.50772 15.3538 2.49653 15.3539C2.32775 15.3546 2.02884 15.356 1.77545 15.1971C1.6476 15.1403 1.54079 15.0545 1.45852 14.9731C1.36203 14.8777 1.2785 14.7678 1.21281 14.6606C1.06231 14.415 1 14.1145 1 13.8378V2.73465C1 2.35677 1.13932 1.98082 1.41325 1.68282ZM2.42577 2.01875C2.29029 2.01875 2.13796 2.07655 2.00222 2.22422C1.86584 2.37258 1.8 2.55458 1.8 2.73465V13.8378C1.8 14.0075 1.84027 14.1534 1.89492 14.2426C1.93181 14.3028 1.9765 14.3603 2.02106 14.4043C2.04297 14.426 2.06223 14.4418 2.07772 14.4526C2.09202 14.4625 2.10053 14.4661 2.10053 14.4661L2.15345 14.4853L2.19901 14.5184C2.2058 14.5233 2.22651 14.5355 2.28444 14.5439C2.33583 14.5514 2.39423 14.5532 2.4738 14.5536C2.61817 14.5117 2.67764 14.4793 2.74675 14.4041L2.75975 14.3899L4.93849 12.4345L13.7066 12.3778L13.7092 12.3777C13.8447 12.3777 13.997 12.3199 14.1328 12.1723C14.2692 12.0239 14.335 11.8419 14.335 11.6618V2.73465C14.335 2.55458 14.2692 2.37258 14.1328 2.22422C13.997 2.07655 13.8447 2.01875 13.7092 2.01875H2.42577Z" fill="#3C3C3C"></path>
                              <path d="M5.15 7.61875C5.56421 7.61875 5.9 7.28296 5.9 6.86875C5.9 6.45454 5.56421 6.11875 5.15 6.11875C4.73579 6.11875 4.4 6.45454 4.4 6.86875C4.4 7.28296 4.73579 7.61875 5.15 7.61875Z" fill="#3C3C3C"></path>
                              <path d="M8.15 7.61875C8.56421 7.61875 8.9 7.28296 8.9 6.86875C8.9 6.45454 8.56421 6.11875 8.15 6.11875C7.73579 6.11875 7.4 6.45454 7.4 6.86875C7.4 7.28296 7.73579 7.61875 8.15 7.61875Z" fill="#3C3C3C"></path>
                              <path d="M11.15 7.61875C11.5642 7.61875 11.9 7.28296 11.9 6.86875C11.9 6.45454 11.5642 6.11875 11.15 6.11875C10.7358 6.11875 10.4 6.45454 10.4 6.86875C10.4 7.28296 10.7358 7.61875 11.15 7.61875Z" fill="#3C3C3C"></path>
                            </svg>