            <svg
                        xmlns="http://www.w3.org/2000/svg"
                        width="20px"
                        height="20px"
                        viewBox="0 0 128 128"
                      >
                        <path
                          fill="#A5A4AA"
                          d="M99.9 30.9L99.9 37.8 95.5 37.8 95.5 55.2 104 55.2 104 37.8 99.9 37.8"
                        />
                        <path
                          fill="#FFF"
                          d="M22.5,116V29.2c0-4.8,3.8-8.7,8.6-8.7h43c4.7,0,8.6,3.9,8.6,8.7V116"
                        />
                        <path
                          fill="#FFF"
                          d="M68.1,59.5H37.2c-2.4,0-4.3-1.9-4.3-4.3v-20c0-2.4,1.9-4.3,4.3-4.3h30.9c2.4,0,4.3,1.9,4.3,4.3v20C72.4,57.6,70.4,59.5,68.1,59.5z"
                        />
                        <path
                          fill="#454B54"
                          d="M82.7,119c-1.7,0-3-1.3-3-3V29.2c0-3.1-2.5-5.7-5.6-5.7h-43c-3.1,0-5.6,2.5-5.6,5.7V116c0,1.7-1.3,3-3,3s-3-1.3-3-3V29.2c0-6.4,5.2-11.7,11.6-11.7h43c6.4,0,11.6,5.2,11.6,11.7V116C85.7,117.7,84.3,119,82.7,119z"
                        />
                        <path
                          fill="#7CA5C6"
                          d="M68.1,59.5H37.2c-2.4,0-4.3-1.9-4.3-4.3v-20c0-2.4,1.9-4.3,4.3-4.3h30.9c2.4,0,4.3,1.9,4.3,4.3v20C72.4,57.6,70.4,59.5,68.1,59.5z"
                        />
                        <path
                          fill="#454B54"
                          d="M68.1 62.5H37.2c-4 0-7.3-3.3-7.3-7.3v-20c0-4 3.3-7.3 7.3-7.3h30.9c4 0 7.3 3.3 7.3 7.3v20C75.4 59.2 72.1 62.5 68.1 62.5zM37.2 33.9c-.7 0-1.3.6-1.3 1.3v20c0 .7.6 1.3 1.3 1.3h30.9c.7 0 1.3-.6 1.3-1.3v-20c0-.7-.6-1.3-1.3-1.3H37.2zM91.3 119H14c-1.7 0-3-1.3-3-3s1.3-3 3-3h77.3c1.7 0 3 1.3 3 3S92.9 119 91.3 119zM95.6 110.2c-4 0-7.3-3.3-7.3-7.3V68.2c0-.7-.6-1.3-1.3-1.3h-4.3c-1.7 0-3-1.3-3-3s1.3-3 3-3H87c4 0 7.3 3.3 7.3 7.3v34.7c0 .7.6 1.3 1.3 1.3s1.3-.6 1.3-1.3V55.2c0-1.7 1.3-3 3-3s3 1.3 3 3v47.7C102.9 106.9 99.6 110.2 95.6 110.2z"
                        />
                        <path
                          fill="#454B54"
                          d="M104,58.2h-8.6c-1.7,0-3-1.3-3-3V37.8c0-1.7,1.3-3,3-3h1.4v-3.9c0-1.7,1.3-3,3-3s3,1.3,3,3v3.9h1.2c1.7,0,3,1.3,3,3v17.3C107,56.8,105.7,58.2,104,58.2z M98.5,52.2h2.6V40.8h-2.6V52.2z"
                        />
                        <g>
                          <path
                            fill="#7CA4C5"
                            d="M48.5,105c-0.5,0-1.1-0.1-1.6-0.4c-1.4-0.9-1.8-2.7-1-4.1l5-8.1l-3.7,0.6c-1.2,0.2-2.3-0.3-2.9-1.3c-0.6-1-0.7-2.2,0-3.2l8.4-13.6c0.9-1.4,2.7-1.8,4.1-1c1.4,0.9,1.8,2.7,1,4.1l-5,8.1l3.7-0.6c1.2-0.2,2.3,0.3,2.9,1.3c0.6,1,0.7,2.2,0,3.2L51,103.5C50.4,104.5,49.5,105,48.5,105z"
                          />
                        </g>
                      </svg>