<svg xmlns="http://www.w3.org/2000/svg" width="512" height="512" viewBox="0 0 512 512"><path fill="#344E5D" d="M504.1,256C504.1,119,393,7.9,256,7.9C119,7.9,7.9,119,7.9,256C7.9,393,119,504.1,256,504.1C393,504.1,504.1,393,504.1,256z"/><path fill="#FFF" d="M442 319.6c-18.1-28.3-36.1-56.7-54.2-85-3-4.8-9.7-4.7-12.7 0-18.2 28.2-36.4 56.5-54.6 84.7-2 3.1-1.3 6 .5 8 1.1 1.7 3 3 5.8 3 9.6 0 19.2 0 28.8.1-44.2 70.3-151.6 76.7-201.9 4.6-16.1-23.1-54.3-1-38 22.3 35.6 50.9 94 80.1 156.4 73 60.1-6.9 108.6-45.7 132.7-99.7 10.3 0 20.6.1 30.9.1C441.1 330.7 445.1 324.4 442 319.6zM396 153.4c-35.6-50.9-94-80.1-156.5-73C178.8 87.4 130 127 106.2 181.8c-12.8 0-25.6-.1-38.5-.1-5.4 0-9.4 6.3-6.4 11.1 18.1 28.3 36.1 56.7 54.2 85 3.1 4.8 9.7 4.7 12.7 0 18.2-28.3 36.4-56.5 54.6-84.7 2-3.1 1.3-6-.5-8-1.1-1.7-3-3-5.8-3-7.2 0-14.3 0-21.5-.1 43.6-71.8 152.2-78.9 202.9-6.2C374.1 198.8 412.3 176.8 396 153.4z"/></svg>