      <svg
                        xmlns="http://www.w3.org/2000/svg"
                        width="20px"
                        height="20px"
                        viewBox="0 0 30 30"
                      >
                        <path
                          d="M6 5 A 2 2 0 0 0 4 7 A 2 2 0 0 0 5 8.7304688L5 14.832031 A 1.0001 1.0001 0 0 0 5 15.158203L5 21.271484 A 2 2 0 0 0 4 23 A 2 2 0 0 0 6 25 A 2 2 0 0 0 8 23 A 2 2 0 0 0 7 21.269531L7 16L14 16L14 21.269531 A 2 2 0 0 0 13 23 A 2 2 0 0 0 15 25 A 2 2 0 0 0 17 23 A 2 2 0 0 0 16 21.271484L16 16L23 16L23 24.271484 A 2 2 0 0 0 22 26 A 2 2 0 0 0 24 28 A 2 2 0 0 0 26 26 A 2 2 0 0 0 25 24.269531L25 15.167969 A 1.0001 1.0001 0 0 0 25 14.841797L25 8.7285156 A 2 2 0 0 0 26 7 A 2 2 0 0 0 24 5 A 2 2 0 0 0 22 7 A 2 2 0 0 0 23 8.7304688L23 14L16 14L16 8.7285156 A 2 2 0 0 0 17 7 A 2 2 0 0 0 15 5 A 2 2 0 0 0 13 7 A 2 2 0 0 0 14 8.7304688L14 14L7 14L7 8.7285156 A 2 2 0 0 0 8 7 A 2 2 0 0 0 6 5 z"
                          fill="#31406F"
                        />
                      </svg>