                      <svg
                        xmlns="http://www.w3.org/2000/svg"
                        width="20px"
                        height="20px"
                        viewBox="0 0 48 48"
                      >
                        <path
                          d="M23.976562 5.9785156 A 1.50015 1.50015 0 0 0 23.759766 6L15.289062 6C12.013523 6 9.2309474 8.4660595 8.8359375 11.716797L6.0488281 34.716797C5.5826456 38.563771 8.6276199 42 12.501953 42L35.5 42C39.373625 42 42.417354 38.563771 41.951172 34.716797L39.164062 11.716797C38.770252 8.4652707 35.986477 6 32.710938 6L24.246094 6 A 1.50015 1.50015 0 0 0 23.976562 5.9785156 z M 15.289062 9L22.5 9L22.5 11.5 A 1.50015 1.50015 0 1 0 25.5 11.5L25.5 9L32.710938 9C34.493397 9 35.971357 10.309651 36.185547 12.078125L38.974609 35.078125C39.230427 37.189151 37.624375 39 35.5 39L25.5 39L25.5 30.5 A 1.50015 1.50015 0 1 0 22.5 30.5L22.5 39L12.501953 39C10.376286 39 8.7695731 37.189151 9.0253906 35.078125L11.814453 12.078125C12.029443 10.308862 13.506604 9 15.289062 9 z M 23.976562 15.978516 A 1.50015 1.50015 0 0 0 22.5 17.5L22.5 23.5 A 1.50015 1.50015 0 1 0 25.5 23.5L25.5 17.5 A 1.50015 1.50015 0 0 0 23.976562 15.978516 z"
                          fill="#31406F"
                        />
                      </svg>