<svg xmlns="http://www.w3.org/2000/svg" viewBox="0 0 32 32">
  <path d="M4 7C3.449219 7 3 7.449219 3 8C3 8.550781 3.449219 9 4 9L6.21875 9L8.84375 19.5C9.066406 20.390625 9.863281 21 10.78125 21L23.25 21C24.152344 21 24.917969 20.402344 25.15625 19.53125L27.75 10L25.65625 10L23.25 19L10.78125 19L8.15625 8.5C7.933594 7.609375 7.136719 7 6.21875 7 Z M 22 21C20.355469 21 19 22.355469 19 24C19 25.644531 20.355469 27 22 27C23.644531 27 25 25.644531 25 24C25 22.355469 23.644531 21 22 21 Z M 13 21C11.355469 21 10 22.355469 10 24C10 25.644531 11.355469 27 13 27C14.644531 27 16 25.644531 16 24C16 22.355469 14.644531 21 13 21 Z M 16 7L16 10L13 10L13 12L16 12L16 15L18 15L18 12L21 12L21 10L18 10L18 7 Z M 13 23C13.5625 23 14 23.4375 14 24C14 24.5625 13.5625 25 13 25C12.4375 25 12 24.5625 12 24C12 23.4375 12.4375 23 13 23 Z M 22 23C22.5625 23 23 23.4375 23 24C23 24.5625 22.5625 25 22 25C21.4375 25 21 24.5625 21 24C21 23.4375 21.4375 23 22 23Z" fill="#1A6FB7" />
</svg>